<?xml version="1.0" encoding="UTF-8"?>
<svg version="1.1" xmlns="http://www.w3.org/2000/svg" width="512" height="512">
<path d="M0 0 C3.34082976 2.51051321 4.46259605 3.73185754 5.22827148 7.88198853 C5.17357844 11.44021964 4.95506974 14.88928986 4.57192802 18.42292595 C4.14582514 22.52078183 3.94428005 26.63241318 3.70922852 30.74487305 C3.65631684 31.60535342 3.60340517 32.4658338 3.54889011 33.35238934 C0.92982839 67.33973639 0.92982839 67.33973639 14.98632812 97.02075195 C18.62432357 101.10439307 22.54059673 104.81111633 26.66992188 108.3918457 C27.17196136 108.82777164 27.67400085 109.26369759 28.19125366 109.7128334 C34.38942567 115.03824623 40.83147879 119.95214378 47.60742188 124.5168457 C64.73822305 116.35323154 85.35288969 99.66155678 92.60742188 81.5168457 C97.26969435 65.07199573 95.46753499 46.54700563 94.45581055 29.70727539 C94.4085829 28.85935897 94.36135525 28.01144255 94.31269646 27.13783169 C94.08262177 23.09178358 93.79465109 19.07149335 93.36859131 15.04115295 C92.47148263 4.93304015 92.47148263 4.93304015 95.50588989 1.1499939 C99.35490617 -1.45590578 103.09723474 -2.90224569 107.77734375 -2.61743164 C109.39922127 -2.29393345 111.00888871 -1.90721735 112.60742188 -1.4831543 C113.70320557 -1.20932922 114.79898926 -0.93550415 115.92797852 -0.65338135 C119.9330443 0.39528774 123.91065343 1.51936391 127.88867188 2.6652832 C129.35307077 3.08292763 130.8175497 3.50029151 132.28210449 3.91738892 C135.33277756 4.78824841 138.38173032 5.66485068 141.4296875 6.54516602 C145.34116259 7.67400364 149.25759418 8.78448286 153.17560577 9.89038658 C156.19258656 10.74478749 159.20621049 11.61056871 162.21897888 12.47969437 C163.66278455 12.89432408 165.10774808 13.30494341 166.55384827 13.71149826 C168.56557433 14.27851237 170.57212287 14.86110602 172.578125 15.44799805 C173.72124146 15.77585297 174.86435791 16.10370789 176.04211426 16.4414978 C176.88866577 16.79636261 177.73521729 17.15122742 178.60742188 17.5168457 C178.93742187 18.5068457 179.26742188 19.4968457 179.60742188 20.5168457 C178.30664063 22.9152832 178.30664063 22.9152832 176.29492188 25.8918457 C148.03203012 69.68219505 149.53394229 116.63170255 148.60742188 168.5168457 C82.60742188 168.5168457 16.60742188 168.5168457 -51.39257812 168.5168457 C-51.72257812 146.7368457 -52.05257812 124.9568457 -52.39257812 102.5168457 C-57.33561218 72.85864136 -63.93510568 49.63904134 -79.2668457 24.4453125 C-80.39860491 22.50652136 -81.41083556 20.53513753 -82.39257812 18.5168457 C-75.08658927 15.60767107 -67.59456641 13.45239233 -60.04101562 11.28637695 C-58.65433194 10.88715509 -57.26766433 10.48787738 -55.88101196 10.08854675 C-52.98874484 9.25664734 -50.09568543 8.42756861 -47.20214844 7.60009766 C-43.50363947 6.54185111 -39.80820732 5.47325366 -36.11340904 4.4021349 C-33.25642238 3.57575178 -30.39741294 2.75654946 -27.53779984 1.93930626 C-26.17437058 1.54838956 -24.81168145 1.15488139 -23.44977951 0.75867653 C-21.54535271 0.20544295 -19.63771807 -0.33671134 -17.72998047 -0.87841797 C-16.10737808 -1.34449715 -16.10737808 -1.34449715 -14.45199585 -1.81999207 C-8.88353769 -3.02701624 -4.97562492 -2.90591044 0 0 Z " fill="#000000" transform="translate(170.392578125,343.483154296875)"/>
<path d="M0 0 C2.29473532 0.96826025 3.56141985 2.03763813 5.30950928 3.80722046 C5.92985046 4.42778824 6.55019165 5.04835602 7.18933105 5.68772888 C7.84677307 6.36065475 8.50421509 7.03358063 9.18157959 7.72689819 C10.20520599 8.75689186 10.20520599 8.75689186 11.24951172 9.80769348 C13.42671655 12.00168609 15.5932574 14.2058811 17.75970459 16.41049194 C19.2342743 17.90010828 20.70952672 19.38904914 22.18548584 20.87728882 C25.80152635 24.52640003 29.40803747 28.18469573 33.00970459 31.84799194 C43.21488588 29.22007077 53.18610521 25.93557865 63.19720459 22.66049194 C69.07532959 20.74236694 74.95345459 18.82424194 81.00970459 16.84799194 C81.00970459 30.37799194 81.00970459 43.90799194 81.00970459 57.84799194 C84.30970459 58.17799194 87.60970459 58.50799194 91.00970459 58.84799194 C93.50610015 59.2676392 95.99676109 59.72370044 98.47845459 60.22299194 C99.12544312 60.35238159 99.77243164 60.48177124 100.43902588 60.61508179 C101.78368877 60.88507283 103.12788985 61.15737411 104.47161865 61.43197632 C106.53263312 61.85267213 108.5952183 62.26489642 110.65814209 62.67611694 C120.72460922 64.70544426 120.72460922 64.70544426 123.00970459 65.84799194 C119.94915358 76.04982864 115.9653979 85.95875866 112.00970459 95.84799194 C37.75970459 95.84799194 -36.49029541 95.84799194 -112.99029541 95.84799194 C-123.99029541 68.84799194 -123.99029541 68.84799194 -122.99029541 64.84799194 C-118.09855663 63.84487107 -113.20557266 62.84815272 -108.31134033 61.85726929 C-106.64757361 61.5194963 -104.9841566 61.17999582 -103.32110596 60.8387146 C-100.92658545 60.34764104 -98.53086392 59.86285356 -96.13482666 59.37924194 C-95.39505081 59.22612549 -94.65527496 59.07300903 -93.89308167 58.91525269 C-90.11695515 58.15962014 -86.88087969 57.84799194 -82.99029541 57.84799194 C-82.99029541 44.31799194 -82.99029541 30.78799194 -82.99029541 16.84799194 C-76.25514168 18.68485205 -69.7339451 20.52538955 -63.18170166 22.83627319 C-61.59535259 23.38319225 -60.008757 23.9293967 -58.42193604 24.47494507 C-55.96827271 25.32184589 -53.51656127 26.17327271 -51.06866455 27.03671265 C-48.67332991 27.87940583 -46.2721444 28.70307039 -43.86920166 29.52377319 C-43.13689835 29.78716995 -42.40459503 30.05056671 -41.65010071 30.32194519 C-37.83264654 31.71225469 -37.83264654 31.71225469 -33.96281433 31.0869751 C-31.96159707 29.82996587 -30.48282927 28.55065123 -28.84576416 26.85116577 C-28.25835449 26.24746658 -27.67094482 25.6437674 -27.06573486 25.02177429 C-26.13120483 24.0482325 -26.13120483 24.0482325 -25.17779541 23.05502319 C-23.84228656 21.6893695 -22.50633573 20.32414791 -21.16998291 18.95932007 C-19.07122474 16.80461802 -16.97659873 14.64627471 -14.88970947 12.48007202 C-12.87174228 10.38983146 -10.83863667 8.31533764 -8.80279541 6.24252319 C-8.17977539 5.58742264 -7.55675537 4.93232208 -6.91485596 4.25737 C-6.32744629 3.66312729 -5.74003662 3.06888458 -5.13482666 2.45663452 C-4.62282715 1.92749954 -4.11082764 1.39836456 -3.58331299 0.85319519 C-1.99029541 -0.15200806 -1.99029541 -0.15200806 0 0 Z " fill="#000000" transform="translate(219.99029541015625,0.152008056640625)"/>
<path d="M0 0 C48.18 0 96.36 0 146 0 C146 22.83450552 143.23710894 42.37835793 127.05932617 59.046875 C125.71977233 60.37836063 124.36044504 61.68986727 123 63 C122.35546875 63.66386719 121.7109375 64.32773437 121.046875 65.01171875 C107.287132 78.32277447 88.62876966 82.6596359 70.08178711 82.47094727 C49.76342145 81.80410441 32.35287097 72.92436825 18.375 58.375 C3.61431724 41.34143334 0 22.01071906 0 0 Z " fill="#000000" transform="translate(146,222)"/>
<path d="M0 0 C48.18 0 96.36 0 146 0 C146 18.15 146 36.3 146 55 C97.82 55 49.64 55 0 55 C0 36.85 0 18.7 0 0 Z M20 24 C19.36335048 28.03211364 19.30181769 30.01737304 21.6875 33.375 C24.31196417 35.21921807 25.78929947 35.92169023 29 36 C31.83713564 34.61442213 33.77001704 33.22998296 36 31 C36.57855736 26.6194943 36.4959561 24.68558638 33.875 21.0625 C31.16232816 18.82256334 31.16232816 18.82256334 28 18.375 C23.89296559 19.23063217 22.44598887 20.61878009 20 24 Z M112.625 20.5625 C110.4300521 23.85492184 109.93055603 26.04169355 110 30 C112.24824144 33.04173841 113.9893103 34.59572412 117.5 36 C120.8182753 36 122.37876644 34.98363621 125 33 C127.33984442 30.12351775 127.33984442 30.12351775 126.875 26.5625 C125.91234961 22.64313768 125.3563415 21.20811941 122 19 C118.08548544 18.44078363 115.9617771 18.36725191 112.625 20.5625 Z " fill="#000000" transform="translate(146,150)"/>
<path d="M0 0 C8.91685451 3.05175769 15.3794174 10.42806984 19.8203125 18.51953125 C24.3670591 28.07974347 25.15204044 37.16819974 25.11352539 47.61694336 C25.11367142 48.6615976 25.11381744 49.70625183 25.1139679 50.78256226 C25.11327401 54.21834424 25.10550616 57.65407129 25.09765625 61.08984375 C25.09579021 63.47880524 25.09436718 65.86776712 25.09336853 68.25672913 C25.089558 74.53175928 25.07974023 80.80676613 25.06866455 87.08178711 C25.05661623 94.61759205 25.05204122 102.15340479 25.04621124 109.68921661 C25.03652769 121.12616059 25.01736086 132.56305349 25 144 C6.52 144 -11.96 144 -31 144 C-31.04125 135.729375 -31.0825 127.45875 -31.125 118.9375 C-31.14320801 116.37991943 -31.16141602 113.82233887 -31.18017578 111.18725586 C-31.22596111 100.23407521 -31.06446261 89.35583388 -30.1328125 78.4375 C-30.01898727 77.09128822 -30.01898727 77.09128822 -29.90286255 75.71788025 C-27.22347735 47.84825172 -15.91220545 22.69445695 0 0 Z " fill="#000000" transform="translate(367,368)"/>
<path d="M0 0 C1.64673759 2.30175961 3.15094538 4.58984871 4.625 7 C5.0694043 7.7226001 5.51380859 8.4452002 5.97167969 9.18969727 C21.8661982 35.42361713 30.43577171 63.79096846 30.1953125 94.5859375 C30.19156934 96.02324219 30.18872856 97.46054948 30.18673706 98.89785767 C30.17920293 102.62959185 30.15964615 106.36116334 30.1373291 110.09283447 C30.1129923 114.59767292 30.10404087 119.10256663 30.09242249 123.60745239 C30.07321266 130.40508045 30.03482004 137.2023535 30 144 C11.85 144 -6.3 144 -25 144 C-25.16043524 116.81959687 -25.16043524 116.81959687 -25.1953125 105.17773438 C-25.21916563 97.25340279 -25.24729599 89.32922437 -25.30175781 81.4050293 C-25.34541896 75.01186785 -25.36918 68.61890603 -25.37950897 62.22560692 C-25.38686401 59.79411874 -25.40122614 57.3626407 -25.42292023 54.93123817 C-25.58627432 35.85347063 -24.78675407 20.99588323 -10.9375 6.625 C-4.03535857 0 -4.03535857 0 0 0 Z " fill="#000000" transform="translate(72,368)"/>
<path d="M0 0 C77.88 0 155.76 0 236 0 C236 6.27 236 12.54 236 19 C158.12 19 80.24 19 0 19 C0 12.73 0 6.46 0 0 Z " fill="#000000" transform="translate(101,113)"/>
<path d="M0 0 C2.90543872 1.31376917 4.96661059 2.72056492 7.20800781 4.98095703 C7.80832825 5.58142853 8.40864868 6.18190002 9.02716064 6.80056763 C9.66272888 7.44645844 10.29829712 8.09234924 10.953125 8.7578125 C11.61334656 9.42086395 12.27356812 10.08391541 12.95379639 10.76705933 C15.05727824 12.88171832 17.15369142 15.00323212 19.25 17.125 C20.67662261 18.56165557 22.10370072 19.99785898 23.53125 21.43359375 C27.02613661 24.95050804 30.51470062 28.47358547 34 32 C31.41512283 37.48932742 27.13809816 41.4610203 22.9440918 45.75610352 C21.94123032 46.79211744 20.94922473 47.83875314 19.96850586 48.89575195 C18.54333636 50.43093622 17.08750926 51.93007036 15.62109375 53.42578125 C14.7592749 54.32723877 13.89745605 55.22869629 13.00952148 56.1574707 C8.0699558 59.18163734 3.98725549 57.70948994 -1.41288757 56.42692566 C-3.9799894 55.75813222 -6.52206689 55.0279564 -9.06640625 54.27734375 C-9.98590561 54.01240616 -10.90540497 53.74746857 -11.85276794 53.47450256 C-14.75805265 52.63570098 -17.66026539 51.78678753 -20.5625 50.9375 C-22.54472679 50.36325844 -24.52714702 49.78968419 -26.50976562 49.21679688 C-31.34211383 47.81890064 -36.17173584 46.41193468 -41 45 C-41 41 -41 41 -39.44348145 38.96246338 C-38.71512085 38.24298523 -37.98676025 37.52350708 -37.23632812 36.78222656 C-36.00505188 35.5514035 -36.00505188 35.5514035 -34.74890137 34.29571533 C-33.85207642 33.41953552 -32.95525146 32.54335571 -32.03125 31.640625 C-31.12121216 30.73624695 -30.21117432 29.8318689 -29.27355957 28.90008545 C-26.85575159 26.49753938 -24.42617289 24.10724727 -21.99395752 21.71929932 C-19.51349845 19.27978094 -17.04434471 16.82887904 -14.57421875 14.37890625 C-9.72715849 9.57472653 -4.86756972 4.783396 0 0 Z " fill="#000000" transform="translate(354,289)"/>
<path d="M0 0 C3.22588873 1.42321206 5.43540201 3.781336 7.88618469 6.2459259 C8.44432861 6.79560028 9.00247253 7.34527466 9.57752991 7.91160583 C11.41902007 9.72970727 13.24910758 11.55879158 15.07832336 13.38923645 C16.3526611 14.65647555 17.62729799 15.92341388 18.90222168 17.19006348 C21.57120482 19.84559876 24.23417161 22.50700208 26.89350891 25.17219543 C30.30785411 28.59244745 33.74012018 31.99407087 37.17754078 35.39111042 C39.81377795 38.00154855 42.43851073 40.62331869 45.06004906 43.24851036 C46.32123834 44.50800217 47.58643376 45.76349529 48.85561562 47.01493263 C50.62531864 48.76259311 52.37853083 50.52528535 54.12837219 52.2928009 C54.65867538 52.80984085 55.18897858 53.3268808 55.73535156 53.85958862 C57.16702271 55.32522583 57.16702271 55.32522583 59.18379211 57.9634552 C59.10740603 62.28037295 55.82463895 64.87378651 52.93379211 67.7759552 C52.21642883 68.5484259 52.21642883 68.5484259 51.48457336 69.33650208 C50.04316711 70.79548645 50.04316711 70.79548645 47.18379211 72.9634552 C42.30598175 72.87712681 39.70784178 70.06855038 36.45967102 66.78865051 C35.91113464 66.250336 35.36259827 65.71202148 34.79743958 65.15739441 C32.99130143 63.37900751 31.20035833 61.58619602 29.41035461 59.7915802 C28.16001124 58.54901092 26.90922154 57.3068906 25.65800476 56.06520081 C23.04043217 53.46254229 20.43073493 50.85227901 17.82588196 48.2368927 C14.4833205 44.88272088 11.11853679 41.55187385 7.74707985 38.22677994 C5.15960977 35.66873399 2.58608479 33.09701038 0.01641464 30.52109528 C-1.21890906 29.28679983 -2.45898092 28.05723793 -3.70379257 26.8325119 C-5.44002107 25.12089226 -7.15616646 23.39136244 -8.86845398 21.65583801 C-9.64752609 20.89969711 -9.64752609 20.89969711 -10.44233704 20.12828064 C-11.84413147 18.68397522 -11.84413147 18.68397522 -13.81620789 15.9634552 C-13.73645017 11.01305066 -10.87829303 8.38882567 -7.50370789 5.0884552 C-7.01708679 4.57798645 -6.5304657 4.0675177 -6.02909851 3.5415802 C-2.42418461 -0.04877819 -2.42418461 -0.04877819 0 0 Z " fill="#000000" transform="translate(368.8162078857422,249.0365447998047)"/>
<path d="M0 0 C1.0415625 0.45890625 2.083125 0.9178125 3.15625 1.390625 C27.55048835 11.94096065 52.01928947 15.310991 77.4609375 5.69140625 C80.33742474 4.51782731 83.16763367 3.27521547 86 2 C87.65 1.34 89.3 0.68 91 0 C91 6.27 91 12.54 91 19 C68.12520797 31.25435288 44.42364527 35.54540204 19 28.1875 C12.24645945 25.90497427 5.93273017 22.95515345 0 19 C-0.34057617 17.02880859 -0.34057617 17.02880859 -0.29296875 14.6484375 C-0.28330078 13.79765625 -0.27363281 12.946875 -0.26367188 12.0703125 C-0.23853516 11.18085938 -0.21339844 10.29140625 -0.1875 9.375 C-0.17396484 8.4778125 -0.16042969 7.580625 -0.14648438 6.65625 C-0.11106925 4.43690211 -0.06168461 2.21874812 0 0 Z " fill="#000000" transform="translate(174,309)"/>
<path d="M0 0 C4.54395569 2.18489295 7.88158788 6.28947635 11.39892578 9.82324219 C12.88126684 11.30655895 14.38367372 12.76725053 15.88842773 14.2277832 C16.82106445 15.1578418 17.75370117 16.08790039 18.71459961 17.04614258 C19.5741626 17.89861572 20.43372559 18.75108887 21.31933594 19.62939453 C23.07006836 21.99536133 23.07006836 21.99536133 23.12670898 23.9909668 C20.77441493 28.45315123 16.78491508 31.79796077 13.2421875 35.32421875 C11.75887074 36.8065598 10.29817916 38.30896668 8.83764648 39.8137207 C7.90758789 40.74635742 6.9775293 41.67899414 6.01928711 42.63989258 C5.16681396 43.49945557 4.31434082 44.35901855 3.43603516 45.24462891 C1.07006836 46.99536133 1.07006836 46.99536133 -0.9140625 47.07446289 C-3.82734802 45.51497131 -5.81823226 43.4404043 -8.13305664 41.08520508 C-8.61570984 40.59830704 -9.09836304 40.111409 -9.59564209 39.60975647 C-11.13094014 38.05770683 -12.65546089 36.49553996 -14.17993164 34.93286133 C-15.22090384 33.87683776 -16.26256304 32.82149094 -17.30493164 31.7668457 C-19.85460797 29.18414718 -22.3947236 26.59227251 -24.92993164 23.99536133 C-20.27270963 18.43626458 -15.38371415 13.17113448 -10.30493164 7.99536133 C-9.55469727 7.20774414 -8.80446289 6.42012695 -8.03149414 5.60864258 C-6.94094727 4.50069336 -6.94094727 4.50069336 -5.82836914 3.37036133 C-5.17529785 2.6974707 -4.52222656 2.02458008 -3.84936523 1.33129883 C-1.92993164 -0.00463867 -1.92993164 -0.00463867 0 0 Z " fill="#000000" transform="translate(219.929931640625,398.004638671875)"/>
<path d="M0 0 C-0.48271765 10.61978834 -6.50975668 19.65943529 -14.1015625 26.73828125 C-25.7423589 35.82186766 -38.47409059 38.57846542 -53 38 C-52.51733588 27.38138933 -46.49153136 18.33478781 -38.89453125 11.26171875 C-27.19849926 2.122714 -14.5305709 -0.49256173 0 0 Z " fill="#000000" transform="translate(83,131)"/>
<path d="M0 0 C14.85064419 -0.46651238 27.4008372 1.62137698 39.3125 11.1875 C45.88066044 17.37251775 50.39518815 25.41944331 53 34 C53 34.99 53 35.98 53 37 C37.74528943 37.47781576 26.04372041 36.31019571 13.8046875 26.18359375 C7.4291615 20.18381168 2.05253055 12.62062833 0 4 C0 2.68 0 1.36 0 0 Z " fill="#000000" transform="translate(30,77)"/>
<path d="M0 0 C4.07552889 1.5186464 6.57983783 4.24363645 9.61767578 7.29052734 C10.25665802 7.92093933 10.89564026 8.55135132 11.5539856 9.2008667 C12.8986604 10.53407495 14.23815072 11.87252998 15.57275391 13.21582031 C17.62196069 15.27136384 19.69641038 17.29880333 21.77392578 19.32568359 C23.07762849 20.62484183 24.37976744 21.92557158 25.68017578 23.22802734 C26.6158992 24.13612152 26.6158992 24.13612152 27.57052612 25.06256104 C31.74416113 29.32829491 31.74416113 29.32829491 31.77539062 32.76660156 C30.28458204 36.05149422 28.03258582 38.40086091 25.50048828 40.89990234 C24.783125 41.66560547 24.783125 41.66560547 24.05126953 42.44677734 C20.49099042 46.0167049 20.49099042 46.0167049 17.50097656 46.04980469 C13.42544767 44.53115829 10.92113873 41.80616824 7.88330078 38.75927734 C7.24431854 38.12886536 6.6053363 37.49845337 5.94699097 36.84893799 C4.60231616 35.51572974 3.26282584 34.17727471 1.92822266 32.83398438 C-0.12098413 30.77844084 -2.19543382 28.75100136 -4.27294922 26.72412109 C-5.57665193 25.42496286 -6.87879088 24.12423311 -8.17919922 22.82177734 C-8.80301483 22.21638123 -9.42683044 21.61098511 -10.06954956 20.98724365 C-14.24318456 16.72150978 -14.24318456 16.72150978 -14.27441406 13.28320312 C-12.78360548 9.99831047 -10.53160926 7.64894378 -7.99951172 5.14990234 C-7.52126953 4.63943359 -7.04302734 4.12896484 -6.55029297 3.60302734 C-2.99001386 0.03309978 -2.99001386 0.03309978 0 0 Z " fill="#000000" transform="translate(450.24951171875,194.97509765625)"/>
<path d="M0 0 C2.81878012 1.28174718 4.85241496 2.61007615 7.015625 4.8203125 C7.54414063 5.35527344 8.07265625 5.89023438 8.6171875 6.44140625 C9.15601563 6.99699219 9.69484375 7.55257812 10.25 8.125 C11.08144531 8.96998047 11.08144531 8.96998047 11.9296875 9.83203125 C13.29104485 11.21686028 14.64614859 12.60783204 16 14 C14.37272063 18.05485012 11.49705049 20.84312954 8.4765625 23.89453125 C7.93397797 24.44614426 7.39139343 24.99775726 6.83236694 25.56608582 C5.6868779 26.72604491 4.53858899 27.8832449 3.38769531 29.0378418 C1.62570956 30.81178562 -0.11676416 32.60353036 -1.859375 34.39648438 C-2.97541018 35.52197714 -4.0925604 36.64636557 -5.2109375 37.76953125 C-5.73086273 38.3089888 -6.25078796 38.84844635 -6.78646851 39.4042511 C-10.43014336 43.0030758 -10.43014336 43.0030758 -13.17114258 42.98828125 C-16.35473689 41.26792485 -18.78379619 38.72820241 -21.3125 36.1875 C-21.87517578 35.65318359 -22.43785156 35.11886719 -23.01757812 34.56835938 C-24.61328125 32.98046875 -24.61328125 32.98046875 -27 30 C-26.55830114 25.43980826 -23.33914884 22.9603391 -20.21484375 19.921875 C-19.63916153 19.35043762 -19.06347931 18.77900024 -18.47035217 18.19024658 C-16.63299681 16.36966198 -14.78547868 14.55979432 -12.9375 12.75 C-11.68876862 11.51631747 -10.44071331 10.28195022 -9.19335938 9.046875 C-6.1366898 6.02325345 -3.07086474 3.00920079 0 0 Z " fill="#000000" transform="translate(431,230)"/>
<path d="M0 0 C8.85793824 3.79625925 13.82515427 7.32916655 18 16 C20.20697832 22.91717365 20.10642167 31.3350161 17.25 38 C13.81966896 44.52715767 9.67217701 48.78036633 3 52 C2.01 52 1.02 52 0 52 C0 34.84 0 17.68 0 0 Z " fill="#000000" transform="translate(309,169)"/>
<path d="M0 0 C0 17.16 0 34.32 0 52 C-7.48716675 49.50427775 -12.72719811 45.99877964 -16.4375 38.875 C-19.84335076 31.05804737 -19.72520457 23.55927387 -17.1015625 15.4921875 C-14.64445033 9.93318904 -6.88316896 0 0 0 Z " fill="#000000" transform="translate(129,169)"/>
<path d="M0 0 C10.56 0 21.12 0 32 0 C28.40777239 4.19093221 25.01936764 8.10213793 21.125 11.9375 C20.34382813 12.70964844 19.56265625 13.48179687 18.7578125 14.27734375 C18.17773438 14.84582031 17.59765625 15.41429687 17 16 C14.08462499 14.68285542 12.0152987 13.26341874 9.765625 10.99609375 C9.19199219 10.42052734 8.61835938 9.84496094 8.02734375 9.25195312 C7.44082031 8.65318359 6.85429687 8.05441406 6.25 7.4375 C5.64800781 6.83486328 5.04601562 6.23222656 4.42578125 5.61132812 C0 1.14038584 0 1.14038584 0 0 Z " fill="#000000" transform="translate(203,357)"/>
<path d="M0 0 C0 9.57 0 19.14 0 29 C-3.98267363 27.00866319 -6.69786709 24.70318077 -9.8125 21.625 C-10.32748047 21.14289063 -10.84246094 20.66078125 -11.37304688 20.1640625 C-12.83203125 18.7265625 -12.83203125 18.7265625 -15 16 C-14.68317992 12.84036189 -13.56268831 11.18578629 -11.34765625 8.984375 C-10.81849609 8.45585937 -10.28933594 7.92734375 -9.74414062 7.3828125 C-9.18919922 6.84398437 -8.63425781 6.30515625 -8.0625 5.75 C-7.51142578 5.19570313 -6.96035156 4.64140625 -6.39257812 4.0703125 C-2.26712592 0 -2.26712592 0 0 0 Z " fill="#000000" transform="translate(247,371)"/>
<path d="M0 0 C4.06026821 2.03013411 6.65457376 4.42395554 9.75 7.625 C10.25660156 8.140625 10.76320312 8.65625 11.28515625 9.1875 C12.52803902 10.45383339 13.76465276 11.7263144 15 13 C13.33830526 17.30577504 10.16919694 20.09011855 6.9375 23.25 C6.38255859 23.80429687 5.82761719 24.35859375 5.25585938 24.9296875 C1.14043257 29 1.14043257 29 0 29 C0 19.43 0 9.86 0 0 Z " fill="#000000" transform="translate(192,371)"/>
<path d="M0 0 C6.27 0 12.54 0 19 0 C19 0.66 19 1.32 19 2 C18.10796875 2.32613281 17.2159375 2.65226563 16.296875 2.98828125 C15.12640625 3.42527344 13.9559375 3.86226562 12.75 4.3125 C11.58984375 4.74175781 10.4296875 5.17101562 9.234375 5.61328125 C6.39198627 6.83193825 4.40735831 8.11718077 2 10 C1.34 10 0.68 10 0 10 C0 6.7 0 3.4 0 0 Z " fill="#000000" transform="translate(110,150)"/>
<path d="M0 0 C6.27 0 12.54 0 19 0 C19 3.3 19 6.6 19 10 C18.21496094 9.60167969 17.42992187 9.20335937 16.62109375 8.79296875 C11.13956707 6.02866511 5.68287425 3.32481219 0 1 C0 0.67 0 0.34 0 0 Z " fill="#000000" transform="translate(309,150)"/>
</svg>
